<?xml version="1.0" standalone="no"?><!DOCTYPE svg PUBLIC "-//W3C//DTD SVG 1.1//EN" "http://www.w3.org/Graphics/SVG/1.1/DTD/svg11.dtd"><svg t="1678769237852" class="icon" viewBox="0 0 1024 1024" version="1.1" xmlns="http://www.w3.org/2000/svg" p-id="5804" width="37" height="37" xmlns:xlink="http://www.w3.org/1999/xlink"><path d="M678.4 746.112l83.776-395.776c7.424-34.88-12.8-48.512-35.392-40l-492.8 190.208c-33.664 12.8-33.088 32-5.696 40.512l126.016 39.424 292.608-184.448c13.696-9.152 26.304-3.968 16 5.184l-236.8 214.144-9.152 130.24a32 32 0 0 0 25.6-12.8l61.568-59.392 128 94.208c23.424 13.12 39.936 6.4 46.144-21.696zM1024 512a512 512 0 1 1-512-512 512 512 0 0 1 512 512z" fill="#33cc99" p-id="5805"></path></svg>