<svg t="1679398362360" class="icon" viewBox="0 0 1024 1024" version="1.1" xmlns="http://www.w3.org/2000/svg" p-id="19295" width="20" height="20"><path d="M768 496.768a21.333333 21.333333 0 0 1 3.84 42.325333l-3.84 0.341334H256a21.333333 21.333333 0 0 1-3.84-42.325334L256 496.768h512zM768 699.306667a21.333333 21.333333 0 0 1 3.84 42.325333l-3.84 0.341333H256a21.333333 21.333333 0 0 1-3.84-42.325333L256 699.306667h512zM768 294.229333a21.333333 21.333333 0 0 1 3.84 42.325334l-3.84 0.341333H256a21.333333 21.333333 0 0 1-3.84-42.325333L256 294.229333h512z" fill="#e6e6e6" p-id="19296"></path></svg>