<svg t="1679398463235" class="icon" viewBox="0 0 1024 1024" version="1.1" xmlns="http://www.w3.org/2000/svg" p-id="22154" width="26" height="26"><path d="M554.666667 768v85.333333h-42.666667v-85.333333c-136.533333-8.533333-243.2-119.466667-256-256h42.666667c12.8 119.466667 110.933333 213.333333 230.4 213.333333h4.266666c123.733333 0 221.866667-93.866667 230.4-213.333333h42.666667c-8.533333 136.533333-115.2 243.2-251.733333 256z m-21.333334-640C614.4 128 682.666667 196.266667 682.666667 277.333333v213.333334c0 81.066667-68.266667 149.333333-149.333334 149.333333S384 571.733333 384 490.666667v-213.333334C384 196.266667 448 128 533.333333 128z m0 42.666667C473.6 170.666667 426.666667 217.6 426.666667 277.333333v213.333334c0 59.733333 46.933333 106.666667 106.666666 106.666666s106.666667-46.933333 106.666667-106.666666v-213.333334C640 217.6 593.066667 170.666667 533.333333 170.666667z" fill="#8a8a8a" p-id="22155"></path></svg>