<svg t="1679398031233" class="icon" viewBox="0 0 1024 1024" version="1.1" xmlns="http://www.w3.org/2000/svg" p-id="5204" width="28" height="28"><path d="M870.33062 271.292799 153.682683 271.292799c-49.53416 0-89.843214 40.309054-89.843214 89.828888l0 301.743322c0 49.53416 40.309054 89.842191 89.843214 89.842191l716.647937 0c49.53416 0 89.828888-40.308031 89.828888-89.842191L960.159508 361.121687C960.159508 311.600831 919.86478 271.292799 870.33062 271.292799zM931.356508 662.86501c0 33.668821-27.369348 61.038168-61.025888 61.038168L153.682683 723.903178c-33.655518 0-61.038168-27.369348-61.038168-61.038168L92.644515 361.121687c0-33.642215 27.383674-61.024865 61.038168-61.024865l716.647937 0c33.656541 0 61.025888 27.382651 61.025888 61.024865L931.356508 662.86501zM304.550763 384.454092l-37.706787 0c-7.960299 0-14.402011 6.441713-14.402011 14.400988 0 7.960299 6.441713 14.402011 14.402011 14.402011l37.706787 0c7.959276 0 14.400988-6.441713 14.400988-14.402011C318.951751 390.895805 312.511062 384.454092 304.550763 384.454092zM379.991965 413.258115l37.72009 0c7.960299 0 14.402011-6.441713 14.402011-14.402011 0-7.959276-6.441713-14.400988-14.402011-14.400988l-37.72009 0c-7.960299 0-14.402011 6.441713-14.402011 14.400988C365.589954 406.816402 372.031667 413.258115 379.991965 413.258115zM493.138932 413.258115l37.72009 0c7.960299 0 14.402011-6.441713 14.402011-14.402011 0-7.959276-6.441713-14.400988-14.402011-14.400988l-37.72009 0c-7.960299 0-14.400988 6.441713-14.400988 14.400988C478.737944 406.816402 485.178633 413.258115 493.138932 413.258115zM644.021338 384.454092l-37.72009 0c-7.960299 0-14.402011 6.441713-14.402011 14.400988 0 7.960299 6.441713 14.402011 14.402011 14.402011L644.021338 413.257092c7.959276 0 14.400988-6.441713 14.400988-14.402011C658.423349 390.895805 651.981636 384.454092 644.021338 384.454092zM757.169327 384.454092l-37.72009 0c-7.960299 0-14.402011 6.441713-14.402011 14.400988 0 7.960299 6.441713 14.402011 14.402011 14.402011l37.72009 0c7.960299 0 14.402011-6.441713 14.402011-14.402011C771.571339 390.895805 765.129626 384.454092 757.169327 384.454092zM304.550763 497.602082l-37.706787 0c-7.960299 0-14.402011 6.441713-14.402011 14.402011 0 7.959276 6.441713 14.400988 14.402011 14.400988l37.706787 0c7.959276 0 14.400988-6.441713 14.400988-14.400988C318.951751 504.043794 312.511062 497.602082 304.550763 497.602082zM379.991965 526.405081l37.72009 0c7.960299 0 14.402011-6.441713 14.402011-14.400988 0-7.960299-6.441713-14.402011-14.402011-14.402011l-37.72009 0c-7.960299 0-14.402011 6.441713-14.402011 14.402011C365.589954 519.963369 372.031667 526.405081 379.991965 526.405081zM493.138932 526.405081l37.72009 0c7.960299 0 14.402011-6.441713 14.402011-14.400988 0-7.960299-6.441713-14.402011-14.402011-14.402011l-37.72009 0c-7.960299 0-14.400988 6.441713-14.400988 14.402011C478.737944 519.963369 485.178633 526.405081 493.138932 526.405081zM644.021338 497.602082l-37.72009 0c-7.960299 0-14.402011 6.441713-14.402011 14.402011 0 7.959276 6.441713 14.400988 14.402011 14.400988L644.021338 526.405081c7.959276 0 14.400988-6.441713 14.400988-14.400988C658.423349 504.043794 651.981636 497.602082 644.021338 497.602082zM757.169327 497.602082l-37.72009 0c-7.960299 0-14.402011 6.441713-14.402011 14.402011 0 7.959276 6.441713 14.400988 14.402011 14.400988l37.72009 0c7.960299 0 14.402011-6.441713 14.402011-14.400988C771.571339 504.043794 765.129626 497.602082 757.169327 497.602082zM304.550763 610.770538l-37.706787 0c-7.960299 0-14.402011 6.441713-14.402011 14.402011 0 7.959276 6.441713 14.400988 14.402011 14.400988l37.706787 0c7.959276 0 14.400988-6.441713 14.400988-14.400988C318.951751 617.21225 312.511062 610.770538 304.550763 610.770538zM644.021338 610.770538 379.991965 610.770538c-7.960299 0-14.402011 6.441713-14.402011 14.402011 0 7.959276 6.441713 14.400988 14.402011 14.400988L644.021338 639.573537c7.959276 0 14.400988-6.441713 14.400988-14.400988C658.423349 617.21225 651.981636 610.770538 644.021338 610.770538zM757.169327 610.770538l-37.72009 0c-7.960299 0-14.402011 6.441713-14.402011 14.402011 0 7.959276 6.441713 14.400988 14.402011 14.400988l37.72009 0c7.960299 0 14.402011-6.441713 14.402011-14.400988C771.571339 617.21225 765.129626 610.770538 757.169327 610.770538z" p-id="5205" fill="#8a8a8a"></path></svg>